<svg xmlns="http://www.w3.org/2000/svg" width="1920" height="1080"><path d="M815,-208L967,-174L1343,-187Z" fill="#f7fafc" stroke="#f7fafc" stroke-width="1.51"/><path d="M362,-208L815,-208L1637,-218Z" fill="#fafdff" stroke="#fafdff" stroke-width="1.51"/><path d="M815,-208L1343,-187L1637,-218Z" fill="#f0f3f4" stroke="#f0f3f4" stroke-width="1.51"/><path d="M1428,1240L979,1274L1674,1260Z" fill="#999b9d" stroke="#999b9d" stroke-width="1.51"/><path d="M1674,1260L979,1274L1825,1274Z" fill="#8b8e8f" stroke="#8b8e8f" stroke-width="1.51"/><path d="M979,1274L650,1298L1825,1274Z" fill="#9c9fa1" stroke="#9c9fa1" stroke-width="1.51"/><path d="M362,-208L1637,-218L1882,-223Z" fill="#eff2f4" stroke="#eff2f4" stroke-width="1.51"/><path d="M2045,-83L2026,38L2050,158Z" fill="#a7a9aa" stroke="#a7a9aa" stroke-width="1.51"/><path d="M1980,1229L1825,1274L2051,1211Z" fill="#656768" stroke="#656768" stroke-width="1.51"/><path d="M2045,-83L2050,158L2052,-196Z" fill="#a7a8a9" stroke="#a7a8a9" stroke-width="1.51"/><path d="M2050,158L1961,176L2054,353Z" fill="#a8aaac" stroke="#a8aaac" stroke-width="1.51"/><path d="M2050,158L2054,353L2083,466Z" fill="#a3a6a7" stroke="#a3a6a7" stroke-width="1.51"/><path d="M2065,983L1931,1087L2092,1153Z" fill="#757879" stroke="#757879" stroke-width="1.51"/><path d="M2026,844L2065,983L2093,774Z" fill="#8e9193" stroke="#8e9193" stroke-width="1.51"/><path d="M2065,983L2092,1153L2093,774Z" fill="#7e8082" stroke="#7e8082" stroke-width="1.51"/><path d="M2050,158L2083,466L2116,599Z" fill="#a1a4a5" stroke="#a1a4a5" stroke-width="1.51"/><path d="M2052,-196L2050,158L2116,599Z" fill="#a3a5a7" stroke="#a3a5a7" stroke-width="1.51"/><path d="M1956,654L2093,774L2116,599Z" fill="#9da0a2" stroke="#9da0a2" stroke-width="1.51"/><path d="M2083,466L1956,654L2116,599Z" fill="#a2a5a7" stroke="#a2a5a7" stroke-width="1.51"/><path d="M2093,774L2092,1153L2116,599Z" fill="#8d9092" stroke="#8d9092" stroke-width="1.51"/><path d="M1964,976L1931,1087L2065,983Z" fill="#818485" stroke="#818485" stroke-width="1.51"/><path d="M2026,844L1964,976L2065,983Z" fill="#898c8d" stroke="#898c8d" stroke-width="1.51"/><path d="M2054,353L1934,449L2083,466Z" fill="#a7aaac" stroke="#a7aaac" stroke-width="1.51"/><path d="M1934,449L1956,654L2083,466Z" fill="#aaadaf" stroke="#aaadaf" stroke-width="1.51"/><path d="M1931,1087L2051,1211L2092,1153Z" fill="#6b6d6e" stroke="#6b6d6e" stroke-width="1.51"/><path d="M1944,774L1982,817L2093,774Z" fill="#9da0a2" stroke="#9da0a2" stroke-width="1.51"/><path d="M1956,654L1944,774L2093,774Z" fill="#a0a4a5" stroke="#a0a4a5" stroke-width="1.51"/><path d="M1982,817L2026,844L2093,774Z" fill="#989b9d" stroke="#989b9d" stroke-width="1.51"/><path d="M1949,-56L2026,38L2045,-83Z" fill="#abacae" stroke="#abacae" stroke-width="1.51"/><path d="M2026,38L1961,176L2050,158Z" fill="#a9acad" stroke="#a9acad" stroke-width="1.51"/><path d="M1931,1087L1980,1229L2051,1211Z" fill="#6b6d6e" stroke="#6b6d6e" stroke-width="1.51"/><path d="M1949,-56L2045,-83L2052,-196Z" fill="#abacad" stroke="#abacad" stroke-width="1.51"/><path d="M1961,176L1900,356L2054,353Z" fill="#adb0b1" stroke="#adb0b1" stroke-width="1.51"/><path d="M1882,-223L1949,-56L2052,-196Z" fill="#b0b2b3" stroke="#b0b2b3" stroke-width="1.51"/><path d="M1900,356L1934,449L2054,353Z" fill="#aeb0b2" stroke="#aeb0b2" stroke-width="1.51"/><path d="M1901,49L1961,176L2026,38Z" fill="#afb1b2" stroke="#afb1b2" stroke-width="1.51"/><path d="M1882,-223L1854,-124L1949,-56Z" fill="#b7b9ba" stroke="#b7b9ba" stroke-width="1.51"/><path d="M1949,-56L1901,49L2026,38Z" fill="#afb1b3" stroke="#afb1b3" stroke-width="1.51"/><path d="M1982,817L1964,976L2026,844Z" fill="#939698" stroke="#939698" stroke-width="1.51"/><path d="M1934,449L1789,613L1956,654Z" fill="#b2b6b8" stroke="#b2b6b8" stroke-width="1.51"/><path d="M1839,175L1900,356L1961,176Z" fill="#b5b7b9" stroke="#b5b7b9" stroke-width="1.51"/><path d="M1820,836L1826,958L1964,976Z" fill="#999d9e" stroke="#999d9e" stroke-width="1.51"/><path d="M1931,1087L1861,1131L1980,1229Z" fill="#757778" stroke="#757778" stroke-width="1.51"/><path d="M1820,836L1964,976L1982,817Z" fill="#9a9d9f" stroke="#9a9d9f" stroke-width="1.51"/><path d="M1944,774L1820,836L1982,817Z" fill="#a4a8aa" stroke="#a4a8aa" stroke-width="1.51"/><path d="M1861,1131L1825,1274L1980,1229Z" fill="#6f7172" stroke="#6f7172" stroke-width="1.51"/><path d="M1784,707L1944,774L1956,654Z" fill="#acafb1" stroke="#acafb1" stroke-width="1.51"/><path d="M1901,49L1839,175L1961,176Z" fill="#b5b8b9" stroke="#b5b8b9" stroke-width="1.51"/><path d="M1826,958L1931,1087L1964,976Z" fill="#8a8d8e" stroke="#8a8d8e" stroke-width="1.51"/><path d="M1566,1234L1428,1240L1674,1260Z" fill="#898c8d" stroke="#898c8d" stroke-width="1.51"/><path d="M1747,484L1789,613L1934,449Z" fill="#bbbfc1" stroke="#bbbfc1" stroke-width="1.51"/><path d="M1789,613L1784,707L1956,654Z" fill="#b4b7b9" stroke="#b4b7b9" stroke-width="1.51"/><path d="M1833,67L1839,175L1901,49Z" fill="#babcbd" stroke="#babcbd" stroke-width="1.51"/><path d="M1781,-53L1901,49L1949,-56Z" fill="#b8babb" stroke="#b8babb" stroke-width="1.51"/><path d="M1854,-124L1781,-53L1949,-56Z" fill="#babcbd" stroke="#babcbd" stroke-width="1.51"/><path d="M1784,707L1820,836L1944,774Z" fill="#aeb2b4" stroke="#aeb2b4" stroke-width="1.51"/><path d="M1839,175L1774,359L1900,356Z" fill="#bbbebf" stroke="#bbbebf" stroke-width="1.51"/><path d="M1826,958L1861,1131L1931,1087Z" fill="#87898a" stroke="#87898a" stroke-width="1.51"/><path d="M1900,356L1774,359L1934,449Z" fill="#b7babc" stroke="#b7babc" stroke-width="1.51"/><path d="M1774,359L1747,484L1934,449Z" fill="#bcbfc1" stroke="#bcbfc1" stroke-width="1.51"/><path d="M1781,-53L1833,67L1901,49Z" fill="#bcbec0" stroke="#bcbec0" stroke-width="1.51"/><path d="M1637,-218L1854,-124L1882,-223Z" fill="#c2c4c5" stroke="#c2c4c5" stroke-width="1.51"/><path d="M-122,-160L-62,-163L231,-203Z" fill="#fdfeff" stroke="#fdfeff" stroke-width="1.51"/><path d="M1706,942L1634,1092L1826,958Z" fill="#9ea1a2" stroke="#9ea1a2" stroke-width="1.51"/><path d="M1696,178L1774,359L1839,175Z" fill="#c2c5c7" stroke="#c2c5c7" stroke-width="1.51"/><path d="M1637,-218L1781,-53L1854,-124Z" fill="#c6c7c8" stroke="#c6c7c8" stroke-width="1.51"/><path d="M1674,1260L1825,1274L1861,1131Z" fill="#787a7b" stroke="#787a7b" stroke-width="1.51"/><path d="M1634,1092L1674,1260L1861,1131Z" fill="#86898a" stroke="#86898a" stroke-width="1.51"/><path d="M1826,958L1634,1092L1861,1131Z" fill="#909394" stroke="#909394" stroke-width="1.51"/><path d="M1637,-218L1646,-92L1781,-53Z" fill="#cccfd0" stroke="#cccfd0" stroke-width="1.51"/><path d="M1833,67L1692,140L1839,175Z" fill="#c0c3c5" stroke="#c0c3c5" stroke-width="1.51"/><path d="M1728,383L1747,484L1774,359Z" fill="#c4c7c9" stroke="#c4c7c9" stroke-width="1.51"/><path d="M1784,707L1711,764L1820,836Z" fill="#b6babc" stroke="#b6babc" stroke-width="1.51"/><path d="M1820,836L1706,942L1826,958Z" fill="#a4a7a9" stroke="#a4a7a9" stroke-width="1.51"/><path d="M1692,140L1696,178L1839,175Z" fill="#c6c8ca" stroke="#c6c8ca" stroke-width="1.51"/><path d="M1258,1211L979,1274L1428,1240Z" fill="#9fa3a5" stroke="#9fa3a5" stroke-width="1.51"/><path d="M1781,-53L1692,140L1833,67Z" fill="#c3c6c7" stroke="#c3c6c7" stroke-width="1.51"/><path d="M1711,764L1706,942L1820,836Z" fill="#b1b5b6" stroke="#b1b5b6" stroke-width="1.51"/><path d="M1660,920L1706,942L1711,764Z" fill="#b2b6b7" stroke="#b2b6b7" stroke-width="1.51"/><path d="M1696,178L1599,240L1728,383Z" fill="#cccfd1" stroke="#cccfd1" stroke-width="1.51"/><path d="M1696,178L1728,383L1774,359Z" fill="#c6c9ca" stroke="#c6c9ca" stroke-width="1.51"/><path d="M1591,-17L1692,140L1781,-53Z" fill="#cbced0" stroke="#cbced0" stroke-width="1.51"/><path d="M1646,-92L1591,-17L1781,-53Z" fill="#cdd0d1" stroke="#cdd0d1" stroke-width="1.51"/><path d="M1726,632L1784,707L1789,613Z" fill="#bcc0c2" stroke="#bcc0c2" stroke-width="1.51"/><path d="M1747,484L1726,632L1789,613Z" fill="#c0c4c6" stroke="#c0c4c6" stroke-width="1.51"/><path d="M1726,632L1711,764L1784,707Z" fill="#bcc0c2" stroke="#bcc0c2" stroke-width="1.51"/><path d="M1634,1092L1595,1138L1674,1260Z" fill="#8e9192" stroke="#8e9192" stroke-width="1.51"/><path d="M1587,651L1711,764L1726,632Z" fill="#c3c7c9" stroke="#c3c7c9" stroke-width="1.51"/><path d="M1650,454L1587,651L1726,632Z" fill="#caced0" stroke="#caced0" stroke-width="1.51"/><path d="M1728,383L1650,454L1747,484Z" fill="#c7cbcd" stroke="#c7cbcd" stroke-width="1.51"/><path d="M1650,454L1726,632L1747,484Z" fill="#c7cbcd" stroke="#c7cbcd" stroke-width="1.51"/><path d="M1591,-17L1557,39L1692,140Z" fill="#d2d5d7" stroke="#d2d5d7" stroke-width="1.51"/><path d="M1660,920L1634,1092L1706,942Z" fill="#a5a8aa" stroke="#a5a8aa" stroke-width="1.51"/><path d="M1554,865L1660,920L1711,764Z" fill="#babec0" stroke="#babec0" stroke-width="1.51"/><path d="M1561,763L1554,865L1711,764Z" fill="#c4c9cb" stroke="#c4c9cb" stroke-width="1.51"/><path d="M1599,240L1650,454L1728,383Z" fill="#cdd0d2" stroke="#cdd0d2" stroke-width="1.51"/><path d="M1343,-187L1381,-170L1637,-218Z" fill="#e3e6e7" stroke="#e3e6e7" stroke-width="1.51"/><path d="M1587,651L1561,763L1711,764Z" fill="#c7cbcd" stroke="#c7cbcd" stroke-width="1.51"/><path d="M1599,240L1486,385L1650,454Z" fill="#d4d8da" stroke="#d4d8da" stroke-width="1.51"/><path d="M1509,488L1587,651L1650,454Z" fill="#d3d7d9" stroke="#d3d7d9" stroke-width="1.51"/><path d="M1504,1006L1634,1092L1660,920Z" fill="#a8abad" stroke="#a8abad" stroke-width="1.51"/><path d="M1595,1138L1566,1234L1674,1260Z" fill="#898c8d" stroke="#898c8d" stroke-width="1.51"/><path d="M1692,140L1599,240L1696,178Z" fill="#cdd0d2" stroke="#cdd0d2" stroke-width="1.51"/><path d="M1557,39L1599,240L1692,140Z" fill="#d2d5d7" stroke="#d2d5d7" stroke-width="1.51"/><path d="M967,-174L1197,-150L1343,-187Z" fill="#f3f6f8" stroke="#f3f6f8" stroke-width="1.51"/><path d="M1637,-218L1495,-128L1646,-92Z" fill="#d5d8d9" stroke="#d5d8d9" stroke-width="1.51"/><path d="M1554,865L1504,1006L1660,920Z" fill="#b5b9bb" stroke="#b5b9bb" stroke-width="1.51"/><path d="M1099,1223L979,1274L1258,1211Z" fill="#a4a7a9" stroke="#a4a7a9" stroke-width="1.51"/><path d="M1557,39L1455,91L1599,240Z" fill="#d9dddf" stroke="#d9dddf" stroke-width="1.51"/><path d="M1381,-170L1495,-128L1637,-218Z" fill="#dee1e2" stroke="#dee1e2" stroke-width="1.51"/><path d="M1486,385L1509,488L1650,454Z" fill="#d7dbdd" stroke="#d7dbdd" stroke-width="1.51"/><path d="M1495,-128L1591,-17L1646,-92Z" fill="#d6d9da" stroke="#d6d9da" stroke-width="1.51"/><path d="M1504,1006L1595,1138L1634,1092Z" fill="#a0a3a4" stroke="#a0a3a4" stroke-width="1.51"/><path d="M1463,954L1504,1006L1554,865Z" fill="#babdbf" stroke="#babdbf" stroke-width="1.51"/><path d="M1457,1095L1566,1234L1595,1138Z" fill="#989b9c" stroke="#989b9c" stroke-width="1.51"/><path d="M1504,1006L1457,1095L1595,1138Z" fill="#a5a9aa" stroke="#a5a9aa" stroke-width="1.51"/><path d="M1455,91L1388,160L1599,240Z" fill="#dfe2e4" stroke="#dfe2e4" stroke-width="1.51"/><path d="M1390,311L1486,385L1599,240Z" fill="#dde1e3" stroke="#dde1e3" stroke-width="1.51"/><path d="M1388,160L1390,311L1599,240Z" fill="#e0e4e6" stroke="#e0e4e6" stroke-width="1.51"/><path d="M1509,488L1359,561L1587,651Z" fill="#dbdfe2" stroke="#dbdfe2" stroke-width="1.51"/><path d="M1495,-128L1436,-29L1591,-17Z" fill="#dde0e2" stroke="#dde0e2" stroke-width="1.51"/><path d="M1460,909L1463,954L1554,865Z" fill="#c0c4c6" stroke="#c0c4c6" stroke-width="1.51"/><path d="M1359,561L1370,687L1587,651Z" fill="#dce1e4" stroke="#dce1e4" stroke-width="1.51"/><path d="M1370,687L1561,763L1587,651Z" fill="#d3d7da" stroke="#d3d7da" stroke-width="1.51"/><path d="M1436,-29L1557,39L1591,-17Z" fill="#dbdee0" stroke="#dbdee0" stroke-width="1.51"/><path d="M1427,485L1359,561L1509,488Z" fill="#e1e6e9" stroke="#e1e6e9" stroke-width="1.51"/><path d="M1460,909L1554,865L1561,763Z" fill="#c6cacc" stroke="#c6cacc" stroke-width="1.51"/><path d="M1457,1095L1428,1240L1566,1234Z" fill="#979b9c" stroke="#979b9c" stroke-width="1.51"/><path d="M1370,687L1460,909L1561,763Z" fill="#d2d7da" stroke="#d2d7da" stroke-width="1.51"/><path d="M1436,-29L1455,91L1557,39Z" fill="#dfe2e4" stroke="#dfe2e4" stroke-width="1.51"/><path d="M1370,687L1284,816L1460,909Z" fill="#dadfe2" stroke="#dadfe2" stroke-width="1.51"/><path d="M1486,385L1427,485L1509,488Z" fill="#dee2e5" stroke="#dee2e5" stroke-width="1.51"/><path d="M1463,954L1457,1095L1504,1006Z" fill="#b2b6b8" stroke="#b2b6b8" stroke-width="1.51"/><path d="M1381,-170L1436,-29L1495,-128Z" fill="#e4e7e9" stroke="#e4e7e9" stroke-width="1.51"/><path d="M1390,311L1427,485L1486,385Z" fill="#e2e6e9" stroke="#e2e6e9" stroke-width="1.51"/><path d="M1436,-29L1328,0L1455,91Z" fill="#e6eaec" stroke="#e6eaec" stroke-width="1.51"/><path d="M1328,0L1326,110L1455,91Z" fill="#eaedf0" stroke="#eaedf0" stroke-width="1.51"/><path d="M1258,1211L1428,1240L1457,1095Z" fill="#a2a5a7" stroke="#a2a5a7" stroke-width="1.51"/><path d="M1237,1074L1457,1095L1463,954Z" fill="#b7bbbd" stroke="#b7bbbd" stroke-width="1.51"/><path d="M1241,942L1237,1074L1463,954Z" fill="#c3c7c9" stroke="#c3c7c9" stroke-width="1.51"/><path d="M1460,909L1241,942L1463,954Z" fill="#c6cacc" stroke="#c6cacc" stroke-width="1.51"/><path d="M1237,1074L1258,1211L1457,1095Z" fill="#aeb2b4" stroke="#aeb2b4" stroke-width="1.51"/><path d="M1284,816L1241,942L1460,909Z" fill="#d0d5d8" stroke="#d0d5d8" stroke-width="1.51"/><path d="M1390,311L1256,352L1427,485Z" fill="#eaeef0" stroke="#eaeef0" stroke-width="1.51"/><path d="M1326,110L1388,160L1455,91Z" fill="#e7ebee" stroke="#e7ebee" stroke-width="1.51"/><path d="M1256,352L1246,518L1427,485Z" fill="#ebf0f3" stroke="#ebf0f3" stroke-width="1.51"/><path d="M1381,-170L1328,0L1436,-29Z" fill="#e9edef" stroke="#e9edef" stroke-width="1.51"/><path d="M1388,160L1268,252L1390,311Z" fill="#ebeff1" stroke="#ebeff1" stroke-width="1.51"/><path d="M1246,518L1359,561L1427,485Z" fill="#e9eef1" stroke="#e9eef1" stroke-width="1.51"/><path d="M1197,-150L1328,0L1343,-187Z" fill="#eff2f4" stroke="#eff2f4" stroke-width="1.51"/><path d="M1359,561L1286,607L1370,687Z" fill="#e6ebee" stroke="#e6ebee" stroke-width="1.51"/><path d="M1343,-187L1328,0L1381,-170Z" fill="#edf0f2" stroke="#edf0f2" stroke-width="1.51"/><path d="M1326,110L1268,252L1388,160Z" fill="#eceff2" stroke="#eceff2" stroke-width="1.51"/><path d="M1268,252L1256,352L1390,311Z" fill="#ecf0f3" stroke="#ecf0f3" stroke-width="1.51"/><path d="M1232,690L1284,816L1370,687Z" fill="#e2e7ea" stroke="#e2e7ea" stroke-width="1.51"/><path d="M1286,607L1232,690L1370,687Z" fill="#e5eaed" stroke="#e5eaed" stroke-width="1.51"/><path d="M1237,1074L1205,1142L1258,1211Z" fill="#afb2b4" stroke="#afb2b4" stroke-width="1.51"/><path d="M1246,518L1286,607L1359,561Z" fill="#eaeff2" stroke="#eaeff2" stroke-width="1.51"/><path d="M1152,76L1326,110L1328,0Z" fill="#eef2f4" stroke="#eef2f4" stroke-width="1.51"/><path d="M1200,497L1246,518L1256,352Z" fill="#edf2f5" stroke="#edf2f5" stroke-width="1.51"/><path d="M1152,76L1268,252L1326,110Z" fill="#eef2f5" stroke="#eef2f5" stroke-width="1.51"/><path d="M1197,-150L1135,-33L1328,0Z" fill="#f0f4f6" stroke="#f0f4f6" stroke-width="1.51"/><path d="M1135,-33L1152,76L1328,0Z" fill="#f0f4f6" stroke="#f0f4f6" stroke-width="1.51"/><path d="M1152,76L1100,251L1268,252Z" fill="#f1f4f7" stroke="#f1f4f7" stroke-width="1.51"/><path d="M1100,251L1149,289L1268,252Z" fill="#f0f4f7" stroke="#f0f4f7" stroke-width="1.51"/><path d="M1232,690L1159,718L1284,816Z" fill="#e4e9ec" stroke="#e4e9ec" stroke-width="1.51"/><path d="M1130,872L1241,942L1284,816Z" fill="#d6dadd" stroke="#d6dadd" stroke-width="1.51"/><path d="M1246,518L1124,555L1286,607Z" fill="#ecf1f4" stroke="#ecf1f4" stroke-width="1.51"/><path d="M1124,555L1232,690L1286,607Z" fill="#eaeff2" stroke="#eaeff2" stroke-width="1.51"/><path d="M1149,289L1256,352L1268,252Z" fill="#eff3f5" stroke="#eff3f5" stroke-width="1.51"/><path d="M1159,718L1130,872L1284,816Z" fill="#e1e6e9" stroke="#e1e6e9" stroke-width="1.51"/><path d="M1100,985L1237,1074L1241,942Z" fill="#c5c9cb" stroke="#c5c9cb" stroke-width="1.51"/><path d="M1200,497L1124,555L1246,518Z" fill="#eef3f6" stroke="#eef3f6" stroke-width="1.51"/><path d="M1149,289L1200,497L1256,352Z" fill="#eff3f6" stroke="#eff3f6" stroke-width="1.51"/><path d="M1205,1142L1099,1223L1258,1211Z" fill="#a8abad" stroke="#a8abad" stroke-width="1.51"/><path d="M1124,555L1159,718L1232,690Z" fill="#e9eef1" stroke="#e9eef1" stroke-width="1.51"/><path d="M1054,159L1100,251L1152,76Z" fill="#f3f7f9" stroke="#f3f7f9" stroke-width="1.51"/><path d="M1130,872L1100,985L1241,942Z" fill="#d0d4d7" stroke="#d0d4d7" stroke-width="1.51"/><path d="M1100,985L1205,1142L1237,1074Z" fill="#bcc0c2" stroke="#bcc0c2" stroke-width="1.51"/><path d="M1149,289L1027,508L1200,497Z" fill="#f1f5f8" stroke="#f1f5f8" stroke-width="1.51"/><path d="M999,316L1027,508L1149,289Z" fill="#f4f8fb" stroke="#f4f8fb" stroke-width="1.51"/><path d="M1059,767L1130,872L1159,718Z" fill="#e5eaed" stroke="#e5eaed" stroke-width="1.51"/><path d="M1027,508L1124,555L1200,497Z" fill="#f1f6f9" stroke="#f1f6f9" stroke-width="1.51"/><path d="M1100,985L1099,1223L1205,1142Z" fill="#b6babc" stroke="#b6babc" stroke-width="1.51"/><path d="M980,1166L1099,1223L1100,985Z" fill="#b7babc" stroke="#b7babc" stroke-width="1.51"/><path d="M344,1262L131,1309L650,1298Z" fill="#a2a3a5" stroke="#a2a3a5" stroke-width="1.51"/><path d="M813,1246L650,1298L979,1274Z" fill="#a3a6a8" stroke="#a3a6a8" stroke-width="1.51"/><path d="M967,-174L1135,-33L1197,-150Z" fill="#f5f8fa" stroke="#f5f8fa" stroke-width="1.51"/><path d="M455,1261L344,1262L650,1298Z" fill="#a4a6a8" stroke="#a4a6a8" stroke-width="1.51"/><path d="M1056,916L1100,985L1130,872Z" fill="#d3d7da" stroke="#d3d7da" stroke-width="1.51"/><path d="M967,-174L1081,-17L1135,-33Z" fill="#f5f9fb" stroke="#f5f9fb" stroke-width="1.51"/><path d="M1081,-17L1071,27L1135,-33Z" fill="#f4f7fa" stroke="#f4f7fa" stroke-width="1.51"/><path d="M1100,251L999,316L1149,289Z" fill="#f3f7fa" stroke="#f3f7fa" stroke-width="1.51"/><path d="M1135,-33L1071,27L1152,76Z" fill="#f3f7f9" stroke="#f3f7f9" stroke-width="1.51"/><path d="M1124,555L994,618L1159,718Z" fill="#edf2f5" stroke="#edf2f5" stroke-width="1.51"/><path d="M994,618L1059,767L1159,718Z" fill="#eaeff2" stroke="#eaeff2" stroke-width="1.51"/><path d="M1056,916L1071,972L1100,985Z" fill="#cfd4d6" stroke="#cfd4d6" stroke-width="1.51"/><path d="M1071,27L1054,159L1152,76Z" fill="#f3f7fa" stroke="#f3f7fa" stroke-width="1.51"/><path d="M1071,972L980,1166L1100,985Z" fill="#c4c8ca" stroke="#c4c8ca" stroke-width="1.51"/><path d="M1059,767L1056,916L1130,872Z" fill="#dee3e5" stroke="#dee3e5" stroke-width="1.51"/><path d="M1027,508L994,618L1124,555Z" fill="#f2f7fa" stroke="#f2f7fa" stroke-width="1.51"/><path d="M999,316L923,450L1027,508Z" fill="#f6fafd" stroke="#f6fafd" stroke-width="1.51"/><path d="M994,618L941,710L1059,767Z" fill="#edf2f5" stroke="#edf2f5" stroke-width="1.51"/><path d="M898,1045L980,1166L1071,972Z" fill="#c3c7c9" stroke="#c3c7c9" stroke-width="1.51"/><path d="M1054,159L999,316L1100,251Z" fill="#f4f8fb" stroke="#f4f8fb" stroke-width="1.51"/><path d="M980,1166L979,1274L1099,1223Z" fill="#a9acae" stroke="#a9acae" stroke-width="1.51"/><path d="M925,821L1056,916L1059,767Z" fill="#e3e8ea" stroke="#e3e8ea" stroke-width="1.51"/><path d="M947,132L1054,159L1071,27Z" fill="#f6fafc" stroke="#f6fafc" stroke-width="1.51"/><path d="M902,-6L1071,27L1081,-17Z" fill="#f6fafc" stroke="#f6fafc" stroke-width="1.51"/><path d="M967,-174L902,-6L1081,-17Z" fill="#f8fbfd" stroke="#f8fbfd" stroke-width="1.51"/><path d="M929,-162L902,-6L967,-174Z" fill="#fafcff" stroke="#fafcff" stroke-width="1.51"/><path d="M947,132L999,316L1054,159Z" fill="#f7fafc" stroke="#f7fafc" stroke-width="1.51"/><path d="M1056,916L898,1045L1071,972Z" fill="#ced2d5" stroke="#ced2d5" stroke-width="1.51"/><path d="M902,-6L947,132L1071,27Z" fill="#f8fbfe" stroke="#f8fbfe" stroke-width="1.51"/><path d="M941,710L925,821L1059,767Z" fill="#eaeff2" stroke="#eaeff2" stroke-width="1.51"/><path d="M925,821L898,1045L1056,916Z" fill="#d7dcde" stroke="#d7dcde" stroke-width="1.51"/><path d="M815,-208L929,-162L967,-174Z" fill="#fafdff" stroke="#fafdff" stroke-width="1.51"/><path d="M923,450L856,604L994,618Z" fill="#f5fafd" stroke="#f5fafd" stroke-width="1.51"/><path d="M947,132L848,255L999,316Z" fill="#f8fcfe" stroke="#f8fcfe" stroke-width="1.51"/><path d="M923,450L994,618L1027,508Z" fill="#f5fafd" stroke="#f5fafd" stroke-width="1.51"/><path d="M362,-208L523,-146L815,-208Z" fill="#fbfdff" stroke="#fbfdff" stroke-width="1.51"/><path d="M790,884L898,1045L925,821Z" fill="#d9dde0" stroke="#d9dde0" stroke-width="1.51"/><path d="M917,1235L813,1246L979,1274Z" fill="#a6a9ab" stroke="#a6a9ab" stroke-width="1.51"/><path d="M917,1235L979,1274L980,1166Z" fill="#aaadaf" stroke="#aaadaf" stroke-width="1.51"/><path d="M837,394L923,450L999,316Z" fill="#f7fbfe" stroke="#f7fbfe" stroke-width="1.51"/><path d="M848,255L837,394L999,316Z" fill="#f8fbfe" stroke="#f8fbfe" stroke-width="1.51"/><path d="M856,604L941,710L994,618Z" fill="#f1f6f9" stroke="#f1f6f9" stroke-width="1.51"/><path d="M840,1164L917,1235L980,1166Z" fill="#b0b3b5" stroke="#b0b3b5" stroke-width="1.51"/><path d="M898,1045L840,1164L980,1166Z" fill="#babdbf" stroke="#babdbf" stroke-width="1.51"/><path d="M781,463L856,604L923,450Z" fill="#f7fbfe" stroke="#f7fbfe" stroke-width="1.51"/><path d="M815,-208L902,-6L929,-162Z" fill="#fafcff" stroke="#fafcff" stroke-width="1.51"/><path d="M756,702L925,821L941,710Z" fill="#ecf1f4" stroke="#ecf1f4" stroke-width="1.51"/><path d="M902,-6L762,55L947,132Z" fill="#f9fcff" stroke="#f9fcff" stroke-width="1.51"/><path d="M762,55L848,255L947,132Z" fill="#f9fcff" stroke="#f9fcff" stroke-width="1.51"/><path d="M762,55L723,172L848,255Z" fill="#f9fcfe" stroke="#f9fcfe" stroke-width="1.51"/><path d="M856,604L756,702L941,710Z" fill="#f0f4f7" stroke="#f0f4f7" stroke-width="1.51"/><path d="M756,702L790,884L925,821Z" fill="#e9eef1" stroke="#e9eef1" stroke-width="1.51"/><path d="M807,378L837,394L848,255Z" fill="#f8fbfe" stroke="#f8fbfe" stroke-width="1.51"/><path d="M815,-208L716,11L902,-6Z" fill="#fafcff" stroke="#fafcff" stroke-width="1.51"/><path d="M837,394L781,463L923,450Z" fill="#f7fbfe" stroke="#f7fbfe" stroke-width="1.51"/><path d="M790,884L718,984L898,1045Z" fill="#d1d5d7" stroke="#d1d5d7" stroke-width="1.51"/><path d="M840,1164L813,1246L917,1235Z" fill="#acafb1" stroke="#acafb1" stroke-width="1.51"/><path d="M755,1129L840,1164L898,1045Z" fill="#bcbfc1" stroke="#bcbfc1" stroke-width="1.51"/><path d="M716,11L762,55L902,-6Z" fill="#f9fcff" stroke="#f9fcff" stroke-width="1.51"/><path d="M718,984L755,1129L898,1045Z" fill="#c5c9cb" stroke="#c5c9cb" stroke-width="1.51"/><path d="M523,-146L659,-121L815,-208Z" fill="#fbfdff" stroke="#fbfdff" stroke-width="1.51"/><path d="M659,-121L716,11L815,-208Z" fill="#fafdff" stroke="#fafdff" stroke-width="1.51"/><path d="M781,463L749,592L856,604Z" fill="#f6fafd" stroke="#f6fafd" stroke-width="1.51"/><path d="M749,592L756,702L856,604Z" fill="#f2f6f9" stroke="#f2f6f9" stroke-width="1.51"/><path d="M723,172L807,378L848,255Z" fill="#f8fbfe" stroke="#f8fbfe" stroke-width="1.51"/><path d="M807,378L781,463L837,394Z" fill="#f7fbfe" stroke="#f7fbfe" stroke-width="1.51"/><path d="M755,1129L813,1246L840,1164Z" fill="#b2b5b7" stroke="#b2b5b7" stroke-width="1.51"/><path d="M723,172L631,384L807,378Z" fill="#f9fcfe" stroke="#f9fcfe" stroke-width="1.51"/><path d="M590,255L631,384L723,172Z" fill="#f9fcfe" stroke="#f9fcfe" stroke-width="1.51"/><path d="M756,702L584,773L790,884Z" fill="#ebeff2" stroke="#ebeff2" stroke-width="1.51"/><path d="M584,773L612,892L790,884Z" fill="#e3e7ea" stroke="#e3e7ea" stroke-width="1.51"/><path d="M755,1129L689,1136L813,1246Z" fill="#b4b7b8" stroke="#b4b7b8" stroke-width="1.51"/><path d="M689,1136L650,1298L813,1246Z" fill="#abadaf" stroke="#abadaf" stroke-width="1.51"/><path d="M631,384L781,463L807,378Z" fill="#f8fcfe" stroke="#f8fcfe" stroke-width="1.51"/><path d="M718,984L689,1136L755,1129Z" fill="#c1c5c6" stroke="#c1c5c6" stroke-width="1.51"/><path d="M632,500L749,592L781,463Z" fill="#f7fbfe" stroke="#f7fbfe" stroke-width="1.51"/><path d="M612,892L718,984L790,884Z" fill="#d9dddf" stroke="#d9dddf" stroke-width="1.51"/><path d="M631,384L632,500L781,463Z" fill="#f8fbfe" stroke="#f8fbfe" stroke-width="1.51"/><path d="M647,1003L689,1136L718,984Z" fill="#c7cbcc" stroke="#c7cbcc" stroke-width="1.51"/><path d="M749,592L593,595L756,702Z" fill="#f2f7f9" stroke="#f2f7f9" stroke-width="1.51"/><path d="M716,11L723,172L762,55Z" fill="#fafdfe" stroke="#fafdfe" stroke-width="1.51"/><path d="M716,11L582,30L723,172Z" fill="#fafdfe" stroke="#fafdfe" stroke-width="1.51"/><path d="M593,595L584,773L756,702Z" fill="#f0f4f7" stroke="#f0f4f7" stroke-width="1.51"/><path d="M632,500L593,595L749,592Z" fill="#f6fafd" stroke="#f6fafd" stroke-width="1.51"/><path d="M291,1263L131,1309L344,1262Z" fill="#a4a6a8" stroke="#a4a6a8" stroke-width="1.51"/><path d="M556,1169L650,1298L689,1136Z" fill="#afb2b3" stroke="#afb2b3" stroke-width="1.51"/><path d="M659,-121L582,-32L716,11Z" fill="#fafdff" stroke="#fafdff" stroke-width="1.51"/><path d="M612,892L647,1003L718,984Z" fill="#d3d7d9" stroke="#d3d7d9" stroke-width="1.51"/><path d="M582,30L590,255L723,172Z" fill="#fafcfe" stroke="#fafcfe" stroke-width="1.51"/><path d="M582,-32L582,30L716,11Z" fill="#fafcfe" stroke="#fafcfe" stroke-width="1.51"/><path d="M584,773L559,838L612,892Z" fill="#e6eaec" stroke="#e6eaec" stroke-width="1.51"/><path d="M647,1003L556,1169L689,1136Z" fill="#bec1c3" stroke="#bec1c3" stroke-width="1.51"/><path d="M493,39L514,252L582,30Z" fill="#f9fcfe" stroke="#f9fcfe" stroke-width="1.51"/><path d="M582,30L514,252L590,255Z" fill="#fafcfe" stroke="#fafcfe" stroke-width="1.51"/><path d="M507,727L584,773L593,595Z" fill="#f0f4f6" stroke="#f0f4f6" stroke-width="1.51"/><path d="M590,255L546,373L631,384Z" fill="#f9fcfe" stroke="#f9fcfe" stroke-width="1.51"/><path d="M460,1018L556,1169L647,1003Z" fill="#c5c8c9" stroke="#c5c8c9" stroke-width="1.51"/><path d="M523,-146L582,-32L659,-121Z" fill="#fbfdff" stroke="#fbfdff" stroke-width="1.51"/><path d="M631,384L546,373L632,500Z" fill="#f8fbfe" stroke="#f8fbfe" stroke-width="1.51"/><path d="M612,892L460,1018L647,1003Z" fill="#d2d5d7" stroke="#d2d5d7" stroke-width="1.51"/><path d="M556,1169L455,1261L650,1298Z" fill="#a9abad" stroke="#a9abad" stroke-width="1.51"/><path d="M546,373L466,429L632,500Z" fill="#f8fbfe" stroke="#f8fbfe" stroke-width="1.51"/><path d="M464,594L593,595L632,500Z" fill="#f7fafd" stroke="#f7fafd" stroke-width="1.51"/><path d="M466,429L464,594L632,500Z" fill="#f8fcfe" stroke="#f8fcfe" stroke-width="1.51"/><path d="M523,-146L536,-30L582,-32Z" fill="#fbfdff" stroke="#fbfdff" stroke-width="1.51"/><path d="M514,252L546,373L590,255Z" fill="#f9fcfe" stroke="#f9fcfe" stroke-width="1.51"/><path d="M559,838L429,963L612,892Z" fill="#dde0e2" stroke="#dde0e2" stroke-width="1.51"/><path d="M429,963L460,1018L612,892Z" fill="#d4d7d9" stroke="#d4d7d9" stroke-width="1.51"/><path d="M493,39L399,128L514,252Z" fill="#fafcfe" stroke="#fafcfe" stroke-width="1.51"/><path d="M536,-30L582,30L582,-32Z" fill="#fafcfe" stroke="#fafcfe" stroke-width="1.51"/><path d="M464,594L507,727L593,595Z" fill="#f2f6f9" stroke="#f2f6f9" stroke-width="1.51"/><path d="M507,727L559,838L584,773Z" fill="#ecf0f2" stroke="#ecf0f2" stroke-width="1.51"/><path d="M536,-30L493,39L582,30Z" fill="#fafcfe" stroke="#fafcfe" stroke-width="1.51"/><path d="M460,1018L340,1179L556,1169Z" fill="#bcbec0" stroke="#bcbec0" stroke-width="1.51"/><path d="M507,727L394,838L559,838Z" fill="#ebeff1" stroke="#ebeff1" stroke-width="1.51"/><path d="M394,838L429,963L559,838Z" fill="#e0e3e5" stroke="#e0e3e5" stroke-width="1.51"/><path d="M340,1179L455,1261L556,1169Z" fill="#afb1b3" stroke="#afb1b3" stroke-width="1.51"/><path d="M386,490L464,594L466,429Z" fill="#f8fcfe" stroke="#f8fcfe" stroke-width="1.51"/><path d="M464,594L412,682L507,727Z" fill="#f2f5f8" stroke="#f2f5f8" stroke-width="1.51"/><path d="M523,-146L328,-77L536,-30Z" fill="#fbfdfe" stroke="#fbfdfe" stroke-width="1.51"/><path d="M514,252L466,429L546,373Z" fill="#f9fcfe" stroke="#f9fcfe" stroke-width="1.51"/><path d="M380,226L466,429L514,252Z" fill="#fafcfe" stroke="#fafcfe" stroke-width="1.51"/><path d="M399,128L380,226L514,252Z" fill="#fafcfe" stroke="#fafcfe" stroke-width="1.51"/><path d="M328,-77L493,39L536,-30Z" fill="#fafcfe" stroke="#fafcfe" stroke-width="1.51"/><path d="M380,226L329,397L466,429Z" fill="#f9fcfe" stroke="#f9fcfe" stroke-width="1.51"/><path d="M362,-208L328,-77L523,-146Z" fill="#fcfdff" stroke="#fcfdff" stroke-width="1.51"/><path d="M412,682L394,838L507,727Z" fill="#eef1f4" stroke="#eef1f4" stroke-width="1.51"/><path d="M328,-77L399,128L493,39Z" fill="#fafcfe" stroke="#fafcfe" stroke-width="1.51"/><path d="M340,1179L344,1262L455,1261Z" fill="#aaacae" stroke="#aaacae" stroke-width="1.51"/><path d="M330,608L412,682L464,594Z" fill="#f3f7f9" stroke="#f3f7f9" stroke-width="1.51"/><path d="M386,490L330,608L464,594Z" fill="#f7fafd" stroke="#f7fafd" stroke-width="1.51"/><path d="M329,397L386,490L466,429Z" fill="#f9fcfe" stroke="#f9fcfe" stroke-width="1.51"/><path d="M429,963L340,1179L460,1018Z" fill="#c7c9cb" stroke="#c7c9cb" stroke-width="1.51"/><path d="M289,1172L340,1179L429,963Z" fill="#bfc1c3" stroke="#bfc1c3" stroke-width="1.51"/><path d="M289,917L289,1172L429,963Z" fill="#cccfd1" stroke="#cccfd1" stroke-width="1.51"/><path d="M289,917L221,947L289,1172Z" fill="#cdd0d2" stroke="#cdd0d2" stroke-width="1.51"/><path d="M265,718L394,838L412,682Z" fill="#eef2f4" stroke="#eef2f4" stroke-width="1.51"/><path d="M394,838L289,917L429,963Z" fill="#dce0e2" stroke="#dce0e2" stroke-width="1.51"/><path d="M328,-77L190,108L399,128Z" fill="#fbfdff" stroke="#fbfdff" stroke-width="1.51"/><path d="M330,608L265,718L412,682Z" fill="#f2f6f8" stroke="#f2f6f8" stroke-width="1.51"/><path d="M294,-90L328,-77L362,-208Z" fill="#fcfeff" stroke="#fcfeff" stroke-width="1.51"/><path d="M203,356L329,397L380,226Z" fill="#f9fcfe" stroke="#f9fcfe" stroke-width="1.51"/><path d="M193,168L380,226L399,128Z" fill="#fafcfe" stroke="#fafcfe" stroke-width="1.51"/><path d="M190,108L193,168L399,128Z" fill="#fbfdff" stroke="#fbfdff" stroke-width="1.51"/><path d="M253,589L330,608L386,490Z" fill="#f7fbfd" stroke="#f7fbfd" stroke-width="1.51"/><path d="M265,718L289,917L394,838Z" fill="#e8ecee" stroke="#e8ecee" stroke-width="1.51"/><path d="M294,-90L190,108L328,-77Z" fill="#fbfdff" stroke="#fbfdff" stroke-width="1.51"/><path d="M329,397L243,454L386,490Z" fill="#f9fcff" stroke="#f9fcff" stroke-width="1.51"/><path d="M243,454L253,589L386,490Z" fill="#f8fcff" stroke="#f8fcff" stroke-width="1.51"/><path d="M157,242L203,356L380,226Z" fill="#fafcfe" stroke="#fafcfe" stroke-width="1.51"/><path d="M193,168L157,242L380,226Z" fill="#fafcfe" stroke="#fafcfe" stroke-width="1.51"/><path d="M340,1179L291,1263L344,1262Z" fill="#aaadae" stroke="#aaadae" stroke-width="1.51"/><path d="M231,-203L294,-90L362,-208Z" fill="#fcfeff" stroke="#fcfeff" stroke-width="1.51"/><path d="M140,55L190,108L294,-90Z" fill="#fbfdff" stroke="#fbfdff" stroke-width="1.51"/><path d="M253,589L265,718L330,608Z" fill="#f3f7f9" stroke="#f3f7f9" stroke-width="1.51"/><path d="M289,1172L291,1263L340,1179Z" fill="#afb2b3" stroke="#afb2b3" stroke-width="1.51"/><path d="M221,947L96,1080L289,1172Z" fill="#c5c8c9" stroke="#c5c8c9" stroke-width="1.51"/><path d="M265,718L221,947L289,917Z" fill="#e3e6e9" stroke="#e3e6e9" stroke-width="1.51"/><path d="M203,356L243,454L329,397Z" fill="#fafdfe" stroke="#fafdfe" stroke-width="1.51"/><path d="M79,881L172,951L221,947Z" fill="#dadddf" stroke="#dadddf" stroke-width="1.51"/><path d="M71,788L79,881L221,947Z" fill="#e1e5e7" stroke="#e1e5e7" stroke-width="1.51"/><path d="M172,951L96,1080L221,947Z" fill="#d0d3d4" stroke="#d0d3d4" stroke-width="1.51"/><path d="M-62,-163L145,-151L231,-203Z" fill="#fdfdff" stroke="#fdfdff" stroke-width="1.51"/><path d="M71,788L221,947L265,718Z" fill="#e9edef" stroke="#e9edef" stroke-width="1.51"/><path d="M289,1172L131,1309L291,1263Z" fill="#a9abac" stroke="#a9abac" stroke-width="1.51"/><path d="M231,-203L145,-151L294,-90Z" fill="#fcfdff" stroke="#fcfdff" stroke-width="1.51"/><path d="M145,-151L140,55L294,-90Z" fill="#fcfdff" stroke="#fcfdff" stroke-width="1.51"/><path d="M96,1080L131,1309L289,1172Z" fill="#b2b4b6" stroke="#b2b4b6" stroke-width="1.51"/><path d="M243,454L115,552L253,589Z" fill="#f9fcff" stroke="#f9fcff" stroke-width="1.51"/><path d="M253,589L115,552L265,718Z" fill="#f4f8fa" stroke="#f4f8fa" stroke-width="1.51"/><path d="M115,552L71,788L265,718Z" fill="#f1f5f7" stroke="#f1f5f7" stroke-width="1.51"/><path d="M68,-102L140,55L145,-151Z" fill="#fcfdff" stroke="#fcfdff" stroke-width="1.51"/><path d="M157,242L131,330L203,356Z" fill="#fafcfe" stroke="#fafcfe" stroke-width="1.51"/><path d="M203,356L104,428L243,454Z" fill="#f9fcff" stroke="#f9fcff" stroke-width="1.51"/><path d="M104,428L115,552L243,454Z" fill="#f9fcff" stroke="#f9fcff" stroke-width="1.51"/><path d="M96,1080L-16,1198L131,1309Z" fill="#b1b3b4" stroke="#b1b3b4" stroke-width="1.51"/><path d="M131,330L104,428L203,356Z" fill="#fafdfe" stroke="#fafdfe" stroke-width="1.51"/><path d="M190,108L39,107L193,168Z" fill="#fbfdff" stroke="#fbfdff" stroke-width="1.51"/><path d="M39,107L157,242L193,168Z" fill="#fafcfe" stroke="#fafcfe" stroke-width="1.51"/><path d="M140,55L39,107L190,108Z" fill="#fbfdff" stroke="#fbfdff" stroke-width="1.51"/><path d="M-32,747L71,788L115,552Z" fill="#f1f5f7" stroke="#f1f5f7" stroke-width="1.51"/><path d="M-69,630L-32,747L115,552Z" fill="#f4f7f9" stroke="#f4f7f9" stroke-width="1.51"/><path d="M-16,944L96,1080L172,951Z" fill="#d1d3d5" stroke="#d1d3d5" stroke-width="1.51"/><path d="M79,881L-16,944L172,951Z" fill="#dadddf" stroke="#dadddf" stroke-width="1.51"/><path d="M-16,1198L-188,1220L131,1309Z" fill="#abacad" stroke="#abacad" stroke-width="1.51"/><path d="M68,-102L-40,-28L140,55Z" fill="#fcfeff" stroke="#fcfeff" stroke-width="1.51"/><path d="M-62,-163L68,-102L145,-151Z" fill="#fdfeff" stroke="#fdfeff" stroke-width="1.51"/><path d="M26,314L131,330L157,242Z" fill="#fbfdfe" stroke="#fbfdfe" stroke-width="1.51"/><path d="M39,107L26,314L157,242Z" fill="#fbfdff" stroke="#fbfdff" stroke-width="1.51"/><path d="M-40,-28L39,107L140,55Z" fill="#fcfdff" stroke="#fcfdff" stroke-width="1.51"/><path d="M26,314L104,428L131,330Z" fill="#fafdfe" stroke="#fafdfe" stroke-width="1.51"/><path d="M104,428L-30,435L115,552Z" fill="#fafcff" stroke="#fafcff" stroke-width="1.51"/><path d="M-67,259L26,314L39,107Z" fill="#fbfdff" stroke="#fbfdff" stroke-width="1.51"/><path d="M-34,1151L-16,1198L96,1080Z" fill="#b9bcbd" stroke="#b9bcbd" stroke-width="1.51"/><path d="M-30,435L-69,630L115,552Z" fill="#f9fcff" stroke="#f9fcff" stroke-width="1.51"/><path d="M71,788L8,814L79,881Z" fill="#e8ecee" stroke="#e8ecee" stroke-width="1.51"/><path d="M26,314L-30,435L104,428Z" fill="#fafdff" stroke="#fafdff" stroke-width="1.51"/><path d="M-16,944L-34,1151L96,1080Z" fill="#c7c9ca" stroke="#c7c9ca" stroke-width="1.51"/><path d="M8,814L-16,944L79,881Z" fill="#e1e4e6" stroke="#e1e4e6" stroke-width="1.51"/><path d="M-32,747L8,814L71,788Z" fill="#edf1f3" stroke="#edf1f3" stroke-width="1.51"/><path d="M-62,-163L-40,-28L68,-102Z" fill="#fcfeff" stroke="#fcfeff" stroke-width="1.51"/><path d="M-141,1084L-34,1151L-16,944Z" fill="#c7c9ca" stroke="#c7c9ca" stroke-width="1.51"/><path d="M-104,947L-141,1084L-16,944Z" fill="#d1d3d5" stroke="#d1d3d5" stroke-width="1.51"/><path d="M-40,-28L-127,103L39,107Z" fill="#fcfdff" stroke="#fcfdff" stroke-width="1.51"/><path d="M-127,103L-67,259L39,107Z" fill="#fcfdff" stroke="#fcfdff" stroke-width="1.51"/><path d="M-67,259L-106,429L-30,435Z" fill="#fbfdff" stroke="#fbfdff" stroke-width="1.51"/><path d="M-106,429L-69,630L-30,435Z" fill="#fafcff" stroke="#fafcff" stroke-width="1.51"/><path d="M-104,947L-16,944L8,814Z" fill="#dee1e2" stroke="#dee1e2" stroke-width="1.51"/><path d="M-67,259L-30,435L26,314Z" fill="#fbfdff" stroke="#fbfdff" stroke-width="1.51"/><path d="M-32,747L-148,901L8,814Z" fill="#eaedef" stroke="#eaedef" stroke-width="1.51"/><path d="M-148,901L-104,947L8,814Z" fill="#e0e3e4" stroke="#e0e3e4" stroke-width="1.51"/><path d="M-171,322L-106,429L-67,259Z" fill="#fbfdff" stroke="#fbfdff" stroke-width="1.51"/><path d="M-127,103L-148,242L-67,259Z" fill="#fcfdff" stroke="#fcfdff" stroke-width="1.51"/><path d="M-62,-163L-147,-63L-40,-28Z" fill="#fdfeff" stroke="#fdfeff" stroke-width="1.51"/><path d="M-69,630L-136,648L-32,747Z" fill="#f3f6f8" stroke="#f3f6f8" stroke-width="1.51"/><path d="M-34,1151L-188,1220L-16,1198Z" fill="#b3b4b5" stroke="#b3b4b5" stroke-width="1.51"/><path d="M-106,429L-136,648L-69,630Z" fill="#f8fbfd" stroke="#f8fbfd" stroke-width="1.51"/><path d="M-122,-160L-147,-63L-62,-163Z" fill="#fdfeff" stroke="#fdfeff" stroke-width="1.51"/><path d="M-147,-63L-127,103L-40,-28Z" fill="#fcfdff" stroke="#fcfdff" stroke-width="1.51"/><path d="M-136,648L-183,694L-32,747Z" fill="#f2f5f7" stroke="#f2f5f7" stroke-width="1.51"/><path d="M-183,694L-148,901L-32,747Z" fill="#eef1f3" stroke="#eef1f3" stroke-width="1.51"/><path d="M-141,1084L-188,1220L-34,1151Z" fill="#b9bbbb" stroke="#b9bbbb" stroke-width="1.51"/><path d="M-148,242L-171,322L-67,259Z" fill="#fbfdff" stroke="#fbfdff" stroke-width="1.51"/><path d="M-183,694L-136,648L-106,429Z" fill="#f7fafc" stroke="#f7fafc" stroke-width="1.51"/><path d="M-171,322L-183,694L-106,429Z" fill="#fbfdff" stroke="#fbfdff" stroke-width="1.51"/><path d="M-148,901L-141,1084L-104,947Z" fill="#d3d6d7" stroke="#d3d6d7" stroke-width="1.51"/><path d="M-147,-63L-148,242L-127,103Z" fill="#fcfeff" stroke="#fcfeff" stroke-width="1.51"/><path d="M-171,322L-148,242L-147,-63Z" fill="#fcfdff" stroke="#fcfdff" stroke-width="1.51"/><path d="M-148,901L-188,1220L-141,1084Z" fill="#c6c8c9" stroke="#c6c8c9" stroke-width="1.51"/><path d="M-183,694L-188,1220L-148,901Z" fill="#d9dbdd" stroke="#d9dbdd" stroke-width="1.51"/></svg>