<svg xmlns="http://www.w3.org/2000/svg" width="437.854" height="89.714"><g fill="#333"><path d="M56.847 12.467c-1.557.842-3.1 2.133-4.625 3.874-1.525 1.742-2.962 3.783-4.31 6.125a66.771 66.771 0 0 0-3.726 7.612 83.659 83.659 0 0 0-2.963 8.333 68.536 68.536 0 0 0-1.931 8.287c-.449 2.703-.673 5.166-.673 7.387 0 .962.029 1.862.09 2.702.059.843.18 1.621.36 2.342 1.38-.419 2.671-.704 3.873-.855 1.201-.148 2.221-.225 3.063-.225 1.741 0 3.272.285 4.594.855a13.205 13.205 0 0 1 3.513 2.207c1.801-1.861 3.497-4.189 5.089-6.981 1.59-2.793 2.957-5.869 4.099-9.233a73.066 73.066 0 0 0 2.703-10.584c.66-3.693.991-7.4.991-11.125 0-2.822-.226-5.239-.676-7.251-.45-2.011-1.187-3.662-2.207-4.955-1.021-1.291-2.402-2.236-4.144-2.837-1.743-.6-3.874-.9-6.396-.9-3.423 0-6.756.54-9.999 1.622-3.243 1.081-6.096 2.657-8.558 4.729-2.463 2.072-4.445 4.639-5.945 7.702-1.502 3.062-2.252 6.607-2.252 10.629 0 .961.059 1.802.177 2.522.118.721.355 1.292.711 1.711-2.52 0-4.513-.57-5.982-1.711-1.47-1.14-2.203-3.063-2.203-5.766 0-3.183 1.004-6.26 3.012-9.233 2.009-2.973 4.678-5.599 8.004-7.882 3.328-2.282 7.121-4.113 11.378-5.495A42.01 42.01 0 0 1 54.958 4c4.078 0 7.526.586 10.344 1.757s5.081 2.792 6.79 4.864c1.709 2.072 2.939 4.49 3.688 7.252.749 2.763 1.125 5.706 1.125 8.828 0 3.243-.373 6.756-1.116 10.539a62.395 62.395 0 0 1-3.316 11.17 51.959 51.959 0 0 1-5.578 10.358c-2.252 3.243-4.879 5.977-7.882 8.198a40.422 40.422 0 0 0 2.252 2.747c.78.871 1.635 1.637 2.567 2.297a11.937 11.937 0 0 0 3.153 1.577c1.171.39 2.507.585 4.009.585.48 0 .87-.016 1.171-.045.3-.031.63-.076.991-.136-.96 2.102-2.071 3.588-3.329 4.459-1.259.87-2.848 1.307-4.768 1.307-1.74 0-3.209-.285-4.409-.855-1.199-.572-2.22-1.307-3.058-2.207-.841-.9-1.561-1.923-2.161-3.063s-1.17-2.311-1.709-3.513a24.937 24.937 0 0 1-4.768 1.486 25.727 25.727 0 0 1-5.128.496c-2.339 0-4.484-.331-6.434-.991a12.975 12.975 0 0 1-5.083-3.153c-1.44-1.44-2.549-3.302-3.329-5.585-.78-2.281-1.169-5.073-1.169-8.377 0-2.401.224-5.119.674-8.152a72.672 72.672 0 0 1 2.022-9.278c.898-3.153 2.022-6.216 3.371-9.188s2.936-5.615 4.765-7.927c1.827-2.311 3.865-4.173 6.112-5.585 2.248-1.41 4.75-2.117 7.508-2.117.659 0 1.376.045 2.156.135.779.089 1.589.284 2.428.584zM44.655 60.75c-.662 0-1.382.076-2.162.225a11.89 11.89 0 0 0-2.432.766c1.201 2.343 3.092 3.514 5.675 3.514 1.622 0 3.212-.45 4.774-1.351-.661-.96-1.457-1.726-2.387-2.298-.932-.569-2.088-.856-3.468-.856zM115.369 26.521l-6.576 30.626c-.301 1.202-.45 2.554-.45 4.054 0 1.021.18 1.952.54 2.793.361.841 1.111 1.261 2.252 1.261 1.441 0 2.896-.87 4.369-2.612 1.471-1.74 2.867-4.145 4.189-7.207h3.333c-1.441 3.784-2.882 6.772-4.324 8.964-1.441 2.192-2.838 3.859-4.189 4.999-1.351 1.142-2.643 1.878-3.873 2.207-1.231.329-2.328.496-3.288.496-1.922 0-3.544-.676-4.864-2.027-1.322-1.352-2.104-3.558-2.343-6.621-1.742 3.063-3.679 5.27-5.81 6.621-2.132 1.352-4.22 2.027-6.261 2.027a8.946 8.946 0 0 1-3.873-.855 9.721 9.721 0 0 1-3.153-2.388c-.901-1.021-1.607-2.281-2.117-3.784-.511-1.499-.766-3.182-.766-5.044 0-1.441.181-2.973.541-4.595l6.125-28.915h9.098l-6.576 30.626a12.18 12.18 0 0 0-.36 2.973c0 1.742.39 3.033 1.171 3.874.78.841 1.741 1.261 2.882 1.261 1.741 0 3.527-.855 5.36-2.567 1.831-1.712 3.077-4.128 3.738-7.252l6.126-28.915h9.099z"/><path d="M133.744 26.521l-6.575 30.626c-.302 1.202-.451 2.554-.451 4.054 0 1.021.18 1.952.541 2.793s1.11 1.261 2.252 1.261c1.441 0 2.897-.87 4.369-2.612 1.471-1.74 2.868-4.145 4.189-7.207h3.333c-1.441 3.784-2.883 6.772-4.324 8.964-1.441 2.192-2.838 3.859-4.189 4.999-1.351 1.142-2.643 1.878-3.873 2.207-1.231.329-2.329.496-3.288.496-1.562 0-2.853-.271-3.874-.812-1.022-.54-1.833-1.261-2.432-2.161-.601-.901-1.036-1.952-1.306-3.153a17.57 17.57 0 0 1-.406-3.874c0-1.08.075-2.19.226-3.333.149-1.139.345-2.252.585-3.333l6.125-28.915h9.098zm-8.377-12.973c0-1.621.57-3.032 1.711-4.234 1.14-1.2 2.552-1.801 4.234-1.801 1.621 0 3.032.601 4.233 1.801 1.201 1.202 1.802 2.613 1.802 4.234 0 1.682-.601 3.094-1.802 4.234-1.202 1.141-2.612 1.711-4.233 1.711-1.682 0-3.094-.57-4.234-1.711-1.141-1.14-1.711-2.552-1.711-4.234z"/><path d="M162.299 40.302c.78-.479 1.426-1.32 1.937-2.521.509-1.201.765-2.312.765-3.333s-.329-1.876-.986-2.568c-.657-.689-1.673-1.035-3.047-1.035-2.092 0-3.987.855-5.69 2.567s-3.153 3.844-4.348 6.396c-1.195 2.554-2.121 5.315-2.778 8.288s-.986 5.72-.986 8.242c0 3.123.586 5.391 1.757 6.801 1.171 1.412 3.228 2.117 6.17 2.117 3.183 0 6.125-.795 8.828-2.388 2.702-1.59 5.044-4.067 7.026-7.432h3.063a38.352 38.352 0 0 1-4.324 6.352 34.191 34.191 0 0 1-5.54 5.314 26.922 26.922 0 0 1-6.441 3.648 19.002 19.002 0 0 1-7.026 1.352c-1.743 0-3.415-.271-5.018-.812a11.802 11.802 0 0 1-4.267-2.521c-1.243-1.141-2.244-2.627-3.001-4.459-.757-1.831-1.136-4.068-1.136-6.711 0-1.682.18-3.633.541-5.855.36-2.222.915-4.488 1.667-6.801a43.845 43.845 0 0 1 2.927-6.891 25.631 25.631 0 0 1 4.414-6.081 20.972 20.972 0 0 1 6.036-4.279c2.281-1.081 4.864-1.622 7.747-1.622 3.062 0 5.405.691 7.026 2.072 1.621 1.382 2.432 3.544 2.432 6.485 0 2.103-.406 3.889-1.216 5.36-.811 1.472-1.997 2.207-3.558 2.207-1.323 0-2.314-.631-2.974-1.892z"/><path d="M189.863 8.504l-7.026 32.609 18.557-14.593h8.738l-17.836 12.34a8.03 8.03 0 0 1 1.711-.179c1.741 0 3.182.286 4.324.856 1.14.571 2.04 1.321 2.702 2.251a8.823 8.823 0 0 1 1.396 3.154c.271 1.17.406 2.356.406 3.558 0 1.261-.106 2.447-.315 3.558a65.42 65.42 0 0 1-.676 3.153c-.241.991-.466 1.968-.675 2.928a13.412 13.412 0 0 0-.315 2.883c0 1.621.329 2.733.991 3.332.66.602 1.561.901 2.702.901.36 0 .825-.029 1.396-.09.57-.06 1.185-.239 1.847-.541-.121 2.283-.871 4.099-2.252 5.45-1.382 1.352-3.274 2.027-5.675 2.027-1.562 0-2.883-.271-3.964-.812-1.081-.54-1.952-1.261-2.612-2.161-.661-.901-1.157-1.952-1.486-3.153a14.17 14.17 0 0 1-.496-3.783c0-1.2.104-2.327.315-3.378.209-1.051.435-2.057.676-3.019.239-.959.464-1.905.675-2.837.21-.931.315-1.876.315-2.838 0-1.621-.331-2.792-.991-3.513-.662-.721-1.592-1.081-2.792-1.081-3.423 0-6.457 2.312-9.098 6.937l-4.053 19.097h-9.008l13.242-61.795 9.277-1.261z"/></g><g fill="#29ABE2"><path d="M412.135 78.714l6.197-52H216.128l-6.197 52zM209.604 80.714l-.543 5h202.204l.543-5z"/></g><g fill="#FFF"><path d="M271.631 40.016c0 7.698-2.309 14.952-6.922 21.765-4.614 6.812-9.49 10.218-14.628 10.218-1.771 0-3.316-.567-4.644-1.699-1.325-1.132-2.183-2.665-2.568-4.6-.166-.774-.249-2.1-.249-3.979-3.261 6.853-7.376 10.278-12.35 10.278-2.211 0-4.035-.663-5.47-1.989-1.438-1.327-2.155-3.012-2.155-5.057 0-2.706.773-5.828 2.321-9.366l4.973-11.438c.829-1.934 1.244-3.509 1.244-4.725 0-1.492-.636-2.238-1.906-2.238-1.106 0-2.516.725-4.228 2.173-1.713 1.449-3.012 3.021-3.896 4.715-.277.603-.581.903-.912.903-.332 0-.498-.221-.498-.664 0-.994 1.078-2.596 3.233-4.807 2.872-2.928 5.829-4.393 8.868-4.393 4.033 0 6.052 1.6 6.052 4.796 0 2.206-.886 5.265-2.652 9.179l-4.891 10.749c-1.272 2.812-1.906 5.154-1.906 7.028 0 2.315.938 3.474 2.818 3.474 4.585 0 9.284-5.788 14.09-17.364l4.228-10.17 1.574-4.713c.167-.66.552-1.019 1.161-1.075l.995-.083 1.988-.248 2.322-.413c.606-.11.855-.166.745-.166.441 0 .663.166.663.497 0 .222-.111.443-.332.663a27.08 27.08 0 0 0-.911 2.072l-7.792 19.479c-1.217 3.039-1.823 5.525-1.823 7.459 0 2.708 1.188 4.062 3.563 4.062 3.979 0 8.316-3.896 13.013-11.687 3.481-5.802 5.223-11.409 5.223-16.826 0-1.214-.354-1.823-1.06-1.823-.108 0-.381.062-.815.187-.108.042-.325.062-.652.062-1.576 0-2.362-.69-2.362-2.072 0-.829.325-1.546.981-2.155.655-.607 1.446-.912 2.373-.912 2.129.001 3.194 1.636 3.194 4.903zM309.427 48.542c0 6.465-2.958 12.296-8.87 17.488-4.641 4.09-9.477 6.134-14.504 6.134-3.428 0-6.245-1.188-8.455-3.563-2.211-2.376-3.315-5.442-3.315-9.2 0-3.204.912-6.493 2.735-9.864a27.395 27.395 0 0 1 7.294-8.62c4.752-3.701 9.338-5.553 13.759-5.553 3.371 0 6.105 1.216 8.206 3.647 2.099 2.431 3.15 5.608 3.15 9.531zm-6.383-5.388c0-4.199-1.879-6.299-5.636-6.299-4.588 0-8.565 3.288-11.937 9.862-3.204 6.3-4.807 12.213-4.807 17.738 0 4.145 1.85 6.216 5.554 6.216 4.642 0 8.509-2.983 11.604-8.951 3.481-6.741 5.222-12.929 5.222-18.566zM344.735 39.01c0 1.106-.359 2.06-1.078 2.859-.719.802-1.548 1.202-2.485 1.202-.886 0-1.327-.303-1.327-.912l.165-.829c.11-.331.166-.635.166-.912 0-1.326-.662-1.989-1.989-1.989-1.603 0-3.841 1.547-6.714 4.642-2.873 3.095-5.58 7.432-8.122 13.012l-5.967 13.098c-.554 1.271-1.023 1.905-1.409 1.905-1.106-.166-1.962-.249-2.57-.249-.939 0-1.687.083-2.238.249h-.496c-.498 0-.747-.11-.747-.333 0-.055.083-.166.249-.331l.414-.832 14.008-31.905c0-.443-.359-.665-1.078-.665h-.331c-.221.056-.58.083-1.078.083h-.829c-.827 0-1.241-.193-1.241-.58 0-.332 1.436-.552 4.309-.663 2.873-.11 4.809-.359 5.803-.746.441-.11.69-.166.745-.166.333 0 .498.166.498.497 0 .277-.36 1.299-1.078 3.066l-3.066 7.46c5.082-7.072 9.559-10.609 13.428-10.609 2.703.001 4.058 1.217 4.058 3.648zM412.947 41.497c0 .94-.304 1.74-.911 2.403s-1.326.994-2.155.994c-1.658 0-2.485-.8-2.485-2.403 0-1.326.551-1.989 1.656-1.989.167 0 .429.083.788.249.359.166.649.25.87.25.332 0 .498-.189.498-.57 0-.922-.638-1.818-1.907-2.686-1.272-.868-2.569-1.303-3.896-1.303-1.768 0-3.261.566-4.476 1.695-1.215 1.13-1.823 2.496-1.823 4.094 0 1.378 1.299 5.21 3.896 11.494.608 1.489.913 3.17.913 5.044 0 3.75-1.272 6.892-3.814 9.428-2.542 2.535-5.718 3.804-9.531 3.804-3.314 0-6.092-.927-8.329-2.777-2.238-1.85-3.357-4.13-3.357-6.838 0-1.546.456-2.818 1.368-3.812.911-.994 2.057-1.492 3.438-1.492 1.05 0 1.948.36 2.693 1.078.748.719 1.119 1.574 1.119 2.568 0 1.658-.801 2.487-2.403 2.487-1.713 0-2.568-.58-2.568-1.741 0-.385.069-.772.206-1.16.139-.387.208-.606.208-.663 0-.552-.223-.828-.663-.828-.497 0-.954.372-1.368 1.119a4.943 4.943 0 0 0-.621 2.444c0 2.155.902 4.034 2.706 5.636 1.806 1.604 3.93 2.404 6.372 2.404 2.277 0 4.179-.69 5.705-2.071s2.291-3.122 2.291-5.223c0-1.491-.594-3.923-1.784-7.295-1.131-3.203-1.697-5.855-1.697-7.956 0-3.591 1.091-6.616 3.273-9.076 2.183-2.458 4.85-3.688 8-3.688 2.1 0 3.923.636 5.471 1.906 1.543 1.269 2.317 2.761 2.317 4.474z"/></g><path fill="none" d="M369.848 38.26c-1.16-.992-2.459-1.488-3.896-1.488-4.09 0-8.261 3.418-12.515 10.252-4.034 6.449-6.05 11.905-6.05 16.37 0 4.023 1.823 6.035 5.47 6.035 3.204 0 6.353-2.232 9.448-6.697 2.21-3.142 4.116-6.808 5.72-10.996l1.907-4.878c1.104-2.811 1.657-4.547 1.657-5.209 0-1.267-.581-2.397-1.741-3.389z"/><path fill="#29ABE2" d="M391.068 11.906c-.112 0-.333-.224-.664-.152-.608.147-1.962-.04-4.062-.04h-7.043c-.608 0-.913.402-.913.683s.524.575 1.574.622c1.769.111 2.806.275 3.109.358.303.083.456.352.456.741 0 .223-.112.591-.331.868l-4.802 11.729h7.212l4.8-11.727c.386-.827.69-1.513.913-1.955.108-.22.191-.44.247-.605 0-.33-.166-.522-.496-.522z"/><path fill="#FFF" d="M373.744 37.854l-.579 1.2-.499.976c-1.159-3.37-3.51-5.068-7.044-5.068-5.085 0-10.416 2.612-15.997 7.85-6.188 5.789-9.284 11.933-9.284 18.438 0 3.144.974 5.691 2.921 7.648 1.948 1.957 4.458 2.936 7.53 2.936 2.524 0 4.596-.617 6.46-1.847 1.864-1.23 3.722-3.296 5.722-6.194v2.403c0 3.537 2.195 5.305 6.338 5.305 3.262 0 6.111-1.049 8.434-3.148 1.878-1.714 2.848-3.039 2.848-3.979 0-.441-.179-.663-.564-.663-.221 0-.627.464-1.235 1.389-1.879 2.888-4.14 4.331-6.792 4.331-1.77 0-2.65-.772-2.65-2.317 0-.827.717-2.878 2.154-6.354l14.1-34.043h-7.212l-4.651 11.137zm-3.812 9.004l-1.907 4.878c-1.604 4.188-3.51 7.854-5.72 10.996-3.096 4.465-6.244 6.697-9.448 6.697-3.646 0-5.47-2.012-5.47-6.035 0-4.465 2.016-9.921 6.05-16.37 4.254-6.834 8.425-10.252 12.515-10.252 1.438 0 2.736.496 3.896 1.488 1.16.992 1.741 2.122 1.741 3.389 0 .662-.552 2.398-1.657 5.209z"/></svg>
